<svg width="60.000000" height="60.000000" viewBox="0 0 60 60" fill="none" xmlns="http://www.w3.org/2000/svg" xmlns:xlink="http://www.w3.org/1999/xlink">
	<desc>
			Created with Pixso.
	</desc>
	<defs>
		<clipPath id="clip1_27">
			<rect rx="-0.500000" width="59.000000" height="59.000000" transform="translate(0.500000 0.500000)" fill="white" fill-opacity="0"/>
		</clipPath>
	</defs>
	<rect rx="-0.500000" width="59.000000" height="59.000000" transform="translate(0.500000 0.500000)" fill="#FFFFFF" fill-opacity="0"/>
	<g clip-path="url(#clip1_27)">
		<path d="M15.9 42.01C15.68 41.79 15.38 41.66 15.07 41.66C14.76 41.66 14.46 41.79 14.25 42.01C14.03 42.22 13.9 42.53 13.9 42.84C13.9 43.14 14.03 43.45 14.25 43.66C14.46 43.88 14.76 44.01 15.07 44.01C15.38 44.01 15.68 43.88 15.9 43.66C16.12 43.45 16.25 43.14 16.25 42.84C16.25 42.53 16.12 42.22 15.9 42.01Z" fill="#F79C1B" fill-opacity="1.000000" fill-rule="nonzero"/>
		<path d="M26.53 42.01C26.31 41.79 26.01 41.66 25.7 41.66C25.39 41.66 25.09 41.79 24.87 42.01C24.65 42.22 24.53 42.53 24.53 42.84C24.53 43.14 24.65 43.45 24.87 43.66C25.09 43.88 25.39 44.01 25.7 44.01C26.01 44.01 26.31 43.88 26.53 43.66C26.75 43.45 26.87 43.14 26.87 42.84C26.87 42.53 26.75 42.22 26.53 42.01Z" fill="#F79C1B" fill-opacity="1.000000" fill-rule="nonzero"/>
		<path d="M55.27 42.01C55.05 41.79 54.75 41.66 54.44 41.66C54.13 41.66 53.83 41.79 53.61 42.01C53.39 42.22 53.27 42.53 53.27 42.84C53.27 43.14 53.39 43.45 53.61 43.66C53.83 43.88 54.13 44.01 54.44 44.01C54.75 44.01 55.05 43.88 55.27 43.66C55.49 43.45 55.61 43.14 55.61 42.84C55.61 42.53 55.49 42.22 55.27 42.01Z" fill="#F79C1B" fill-opacity="1.000000" fill-rule="nonzero"/>
		<path d="M51.11 11.28C50.89 11.06 50.58 10.94 50.28 10.94C49.97 10.94 49.66 11.06 49.45 11.28C49.23 11.5 49.1 11.8 49.1 12.11C49.1 12.42 49.23 12.72 49.45 12.94C49.66 13.16 49.97 13.28 50.28 13.28C50.58 13.28 50.89 13.16 51.11 12.94C51.32 12.72 51.45 12.42 51.45 12.11C51.45 11.8 51.32 11.5 51.11 11.28Z" fill="#F79C1B" fill-opacity="1.000000" fill-rule="nonzero"/>
		<path d="M42.34 8.1C41.88 7.64 41.14 7.64 40.68 8.1L31.83 16.95C31.37 17.41 31.37 18.15 31.83 18.61C32.06 18.84 32.36 18.95 32.66 18.95C32.96 18.95 33.26 18.84 33.49 18.61L42.34 9.76C42.8 9.3 42.8 8.56 42.34 8.1Z" fill="#F79C1B" fill-opacity="1.000000" fill-rule="nonzero"/>
		<path d="M17.65 13.36L16.16 13.36C16.16 13.34 16.17 13.32 16.17 13.3L16.17 2.4C16.17 1.07 15.09 0 13.76 0L10.6 0C9.28 0 8.2 1.07 8.2 2.4L8.2 3.55C8.18 3.55 8.16 3.55 8.14 3.55L4.98 3.55C3.65 3.55 2.57 4.63 2.57 5.95L2.57 13.3C2.57 13.32 2.58 13.34 2.58 13.36L1.17 13.36C0.52 13.36 0 13.88 0 14.53C0 15.18 0.52 15.7 1.17 15.7L4.98 15.7L8.14 15.7L10.6 15.7L13.76 15.7L17.65 15.7C18.3 15.7 18.82 15.18 18.82 14.53C18.82 13.88 18.3 13.36 17.65 13.36ZM8.2 13.3C8.2 13.33 8.17 13.36 8.14 13.36L4.98 13.36C4.94 13.36 4.92 13.33 4.92 13.3L4.92 5.95C4.92 5.92 4.94 5.89 4.98 5.89L8.14 5.89C8.17 5.89 8.2 5.92 8.2 5.95L8.2 13.3ZM13.82 13.3C13.82 13.33 13.8 13.36 13.76 13.36L10.6 13.36C10.57 13.36 10.54 13.33 10.54 13.3L10.54 5.95L10.54 2.4C10.54 2.37 10.57 2.34 10.6 2.34L13.76 2.34C13.8 2.34 13.82 2.37 13.82 2.4L13.82 13.3Z" fill="#F79C1B" fill-opacity="1.000000" fill-rule="nonzero"/>
		<path d="M10 18.85L10 18.85L10 18.85L10 18.85Z" fill="#F79C1B" fill-opacity="1.000000" fill-rule="nonzero"/>
		<path d="M56.95 26.71C58.63 26.71 60 25.35 60 23.67L60 7.73C60 6.05 58.63 4.68 56.95 4.68L26.95 4.68C25.27 4.68 23.9 6.05 23.9 7.73L23.9 23.67C23.9 25.35 25.27 26.71 26.95 26.71L38.08 26.71L38.08 28.79C38.08 30.56 36.64 31.99 34.88 31.99L14.07 31.99C14.82 31.01 15.27 29.78 15.27 28.45L15.27 25.63C15.27 24.99 14.74 24.46 14.1 24.46L11.45 24.46C11.44 24.32 11.42 24.17 11.4 24.01C12.24 23.88 13.24 23.56 13.99 22.78C15.42 21.33 15.28 19.05 15.25 18.7C15.23 18.42 15.12 18.16 14.91 17.95C14.71 17.74 14.45 17.63 14.18 17.61C13.66 17.56 11.4 17.42 10 18.85C9.59 19.26 9.32 19.73 9.13 20.22C7.51 19.25 5.54 19.36 5.17 19.39C4.89 19.41 4.63 19.52 4.42 19.73C4.21 19.94 4.1 20.2 4.08 20.47C4.03 20.96 3.9 22.89 4.82 24.46L4.72 24.46C4.07 24.46 3.55 24.99 3.55 25.63L3.55 28.45C3.55 29.78 4 31.01 4.75 31.99L1.17 31.99C0.52 31.99 0 32.52 0 33.17L0 51.92C0 52.56 0.52 53.09 1.17 53.09L9.53 53.09L8.04 58.51C7.95 58.87 8.02 59.24 8.24 59.53C8.47 59.82 8.81 60 9.18 60L14.33 60C14.78 60 15.19 59.74 15.39 59.33L18.39 53.09L41.6 53.09L44.6 59.33C44.8 59.74 45.21 60 45.66 60L50.81 60C51.18 60 51.52 59.82 51.75 59.53C51.97 59.24 52.04 58.87 51.95 58.51L50.46 53.09L58.82 53.09C59.47 53.09 60 52.56 60 51.92L60 33.17C60 32.52 59.47 31.99 58.82 31.99L49.02 31.99C47.25 31.99 45.82 30.56 45.82 28.79L45.82 26.71L56.95 26.71ZM11.67 20.49C11.96 20.2 12.41 20.05 12.85 19.98C12.77 20.4 12.61 20.84 12.32 21.14C12.03 21.43 11.59 21.59 11.16 21.67C11.23 21.24 11.38 20.78 11.67 20.49ZM8.32 22.53C8.81 23.01 9.02 23.78 9.1 24.44C8.43 24.37 7.64 24.18 7.16 23.7C6.67 23.22 6.48 22.43 6.41 21.76C7.07 21.84 7.83 22.05 8.32 22.53ZM5.89 26.81L9.42 26.81C9.5 26.81 9.57 26.81 9.65 26.81C9.73 26.81 9.8 26.81 9.87 26.81L12.92 26.81L12.92 28.45C12.92 30.39 11.35 31.96 9.41 31.96C7.47 31.96 5.89 30.39 5.89 28.45L5.89 26.81ZM13.6 57.65L10.71 57.65L11.95 53.09L15.79 53.09L13.6 57.65ZM19.21 50.74L2.34 50.74L2.34 34.34L19.21 34.34L19.21 50.74ZM38.43 50.74L21.56 50.74L21.56 34.34L38.43 34.34L38.43 50.74ZM39.6 31.96C39.54 31.96 39.48 31.97 39.41 31.98C40.05 31.08 40.42 29.98 40.42 28.79L40.42 26.71L43.47 26.71L43.47 28.79C43.47 29.98 43.85 31.09 44.49 31.99L39.87 31.99C39.79 31.97 39.7 31.96 39.6 31.96ZM46.39 57.65L44.2 53.09L48.04 53.09L49.28 57.65L46.39 57.65ZM57.65 34.34L57.65 50.74L40.78 50.74L40.78 44.01L49.96 44.01C50.6 44.01 51.13 43.48 51.13 42.84C51.13 42.19 50.6 41.66 49.96 41.66L40.78 41.66L40.78 34.34L57.65 34.34ZM39.67 24.37L47.85 16.19C48.31 15.74 48.31 15 47.85 14.54C47.39 14.08 46.65 14.08 46.19 14.54L36.43 24.3C36.41 24.32 36.39 24.35 36.37 24.37L26.95 24.37C26.56 24.37 26.25 24.05 26.25 23.67L26.25 7.73C26.25 7.34 26.56 7.03 26.95 7.03L56.95 7.03C57.34 7.03 57.65 7.34 57.65 7.73L57.65 23.67C57.65 24.05 57.34 24.37 56.95 24.37L39.67 24.37Z" fill="#F79C1B" fill-opacity="1.000000" fill-rule="nonzero"/>
	</g>
</svg>
