<svg width="60.000000" height="60.000000" viewBox="0 0 60 60" fill="none" xmlns="http://www.w3.org/2000/svg" xmlns:xlink="http://www.w3.org/1999/xlink">
	<desc>
			Created with Pixso.
	</desc>
	<defs>
		<clipPath id="clip1_67">
			<rect rx="-0.500000" width="59.000000" height="59.000000" transform="translate(0.500000 0.500000)" fill="white" fill-opacity="0"/>
		</clipPath>
	</defs>
	<rect rx="-0.500000" width="59.000000" height="59.000000" transform="translate(0.500000 0.500000)" fill="#FFFFFF" fill-opacity="0"/>
	<g clip-path="url(#clip1_67)">
		<path d="M52 7.98C37.4 7.98 30.86 0.44 30.76 0.33C30.38 -0.12 29.61 -0.12 29.23 0.34C29.16 0.41 22.69 7.98 7.99 7.98C7.44 7.98 6.99 8.43 6.99 8.98L6.99 28.07C6.99 38.51 11.68 48.42 19.54 54.6C22.71 57.09 26.13 58.89 29.71 59.95C29.8 59.98 29.9 59.99 30 59.99C30.09 59.99 30.19 59.98 30.28 59.95C33.86 58.89 37.28 57.09 40.45 54.6C48.31 48.42 53 38.51 53 28.07L53 8.98C53 8.43 52.55 7.98 52 7.98ZM51 28.07C51 37.9 46.6 47.23 39.22 53.03C36.33 55.29 33.23 56.95 30 57.95C26.76 56.95 23.66 55.29 20.77 53.03C13.39 47.23 8.99 37.9 8.99 28.07L8.99 9.97C21.23 9.7 27.86 4.47 30 2.42C32.13 4.47 38.76 9.7 51 9.97L51 28.07Z" fill="#F79C1B" fill-opacity="1.000000" fill-rule="nonzero"/>
		<path d="M29.43 7.98C26.42 10.03 21.27 12.67 13.86 13.62C13.36 13.68 12.99 14.11 12.99 14.61L12.99 28.07C12.99 36.68 16.82 44.83 23.25 49.88C25.27 51.47 27.42 52.72 29.63 53.59C29.75 53.63 29.87 53.66 30 53.66C30.19 53.66 30.39 53.6 30.56 53.48C30.83 53.29 31 52.99 31 52.65L31 8.81C31 8.44 30.79 8.1 30.46 7.93C30.14 7.75 29.74 7.78 29.43 7.98ZM28.99 51.13C27.44 50.39 25.93 49.45 24.48 48.31C18.54 43.64 14.99 36.07 14.99 28.07L14.99 15.48C21.2 14.56 25.85 12.51 28.99 10.63L28.99 51.13Z" fill="#F79C1B" fill-opacity="1.000000" fill-rule="nonzero"/>
	</g>
</svg>
