<svg width="60.000000" height="60.000000" viewBox="0 0 60 60" fill="none" xmlns="http://www.w3.org/2000/svg" xmlns:xlink="http://www.w3.org/1999/xlink">
	<desc>
			Created with Pixso.
	</desc>
	<defs>
		<clipPath id="clip1_57">
			<rect rx="-0.500000" width="59.000000" height="59.000000" transform="translate(0.500000 0.500000)" fill="white" fill-opacity="0"/>
		</clipPath>
	</defs>
	<rect rx="-0.500000" width="59.000000" height="59.000000" transform="translate(0.500000 0.500000)" fill="#FFFFFF" fill-opacity="0"/>
	<g clip-path="url(#clip1_57)">
		<path d="M54.37 17.34L48.28 17.34L48.28 11.25C48.28 10.87 48.13 10.51 47.86 10.25C47.6 9.99 47.24 9.84 46.87 9.84L37.68 9.84C38.32 7.13 37.35 4.03 35.13 2.14C32.64 0.02 29.38 -0.1 26.25 1.78C23.11 -0.1 19.85 0.02 17.36 2.14C15.14 4.03 14.17 7.13 14.81 9.84L5.62 9.84C5.25 9.84 4.89 9.99 4.63 10.25C4.36 10.51 4.21 10.87 4.21 11.25L4.21 50.62C4.21 50.99 4.36 51.35 4.63 51.61C4.89 51.88 5.25 52.03 5.62 52.03L11.71 52.03L11.71 58.12C11.71 58.49 11.86 58.85 12.13 59.11C12.39 59.38 12.75 59.53 13.12 59.53L54.37 59.53C54.74 59.53 55.1 59.38 55.36 59.11C55.63 58.85 55.78 58.49 55.78 58.12L55.78 18.75C55.78 18.37 55.63 18.01 55.36 17.75C55.1 17.49 54.74 17.34 54.37 17.34ZM19.19 4.28C19.92 3.63 20.87 3.28 21.85 3.28C22.98 3.28 24.2 3.72 25.43 4.6C25.66 4.77 25.95 4.87 26.25 4.87C26.54 4.87 26.83 4.77 27.06 4.6C29.35 2.96 31.62 2.85 33.3 4.28C34.99 5.72 35.56 8.2 34.63 10.06C32.87 13.58 27.94 16.32 26.24 17.18C24.55 16.32 19.62 13.59 17.86 10.06C16.93 8.2 17.5 5.72 19.19 4.28ZM7.03 12.65L16.14 12.65C19.18 17.05 25.38 19.9 25.67 20.03C25.85 20.11 26.05 20.15 26.25 20.15C26.45 20.15 26.64 20.11 26.83 20.03C27.11 19.9 33.31 17.05 36.35 12.65L45.46 12.65L45.46 49.21L7.03 49.21L7.03 12.65ZM52.96 56.71L14.53 56.71L14.53 52.03L46.87 52.03C47.24 52.03 47.6 51.88 47.86 51.61C48.13 51.35 48.28 50.99 48.28 50.62L48.28 20.15L52.96 20.15L52.96 56.71Z" fill="#F79C1B" fill-opacity="1.000000" fill-rule="nonzero"/>
		<path d="M22.5 27.65L37.5 27.65C37.87 27.65 38.23 27.5 38.49 27.24C38.75 26.98 38.9 26.62 38.9 26.25C38.9 25.87 38.75 25.51 38.49 25.25C38.23 24.99 37.87 24.84 37.5 24.84L22.5 24.84C22.12 24.84 21.76 24.99 21.5 25.25C21.24 25.51 21.09 25.87 21.09 26.25C21.09 26.62 21.24 26.98 21.5 27.24C21.76 27.5 22.12 27.65 22.5 27.65Z" fill="#F79C1B" fill-opacity="1.000000" fill-rule="nonzero"/>
		<path d="M16.4 26.25C16.4 27.02 15.77 27.65 15 27.65C14.22 27.65 13.59 27.02 13.59 26.25C13.59 25.47 14.22 24.84 15 24.84C15.77 24.84 16.4 25.47 16.4 26.25Z" fill="#F79C1B" fill-opacity="1.000000" fill-rule="evenodd"/>
		<path d="M22.5 35.15L37.5 35.15C37.87 35.15 38.23 35 38.49 34.74C38.75 34.48 38.9 34.12 38.9 33.75C38.9 33.37 38.75 33.01 38.49 32.75C38.23 32.49 37.87 32.34 37.5 32.34L22.5 32.34C22.12 32.34 21.76 32.49 21.5 32.75C21.24 33.01 21.09 33.37 21.09 33.75C21.09 34.12 21.24 34.48 21.5 34.74C21.76 35 22.12 35.15 22.5 35.15Z" fill="#F79C1B" fill-opacity="1.000000" fill-rule="nonzero"/>
		<path d="M16.4 33.75C16.4 34.52 15.77 35.15 15 35.15C14.22 35.15 13.59 34.52 13.59 33.75C13.59 32.97 14.22 32.34 15 32.34C15.77 32.34 16.4 32.97 16.4 33.75Z" fill="#F79C1B" fill-opacity="1.000000" fill-rule="evenodd"/>
		<path d="M22.5 42.65L37.5 42.65C37.87 42.65 38.23 42.5 38.49 42.24C38.75 41.98 38.9 41.62 38.9 41.25C38.9 40.87 38.75 40.51 38.49 40.25C38.23 39.99 37.87 39.84 37.5 39.84L22.5 39.84C22.12 39.84 21.76 39.99 21.5 40.25C21.24 40.51 21.09 40.87 21.09 41.25C21.09 41.62 21.24 41.98 21.5 42.24C21.76 42.5 22.12 42.65 22.5 42.65Z" fill="#F79C1B" fill-opacity="1.000000" fill-rule="nonzero"/>
		<path d="M16.4 41.25C16.4 42.02 15.77 42.65 15 42.65C14.22 42.65 13.59 42.02 13.59 41.25C13.59 40.47 14.22 39.84 15 39.84C15.77 39.84 16.4 40.47 16.4 41.25Z" fill="#F79C1B" fill-opacity="1.000000" fill-rule="evenodd"/>
	</g>
</svg>
