<svg width="60.000000" height="60.000000" viewBox="0 0 60 60" fill="none" xmlns="http://www.w3.org/2000/svg" xmlns:xlink="http://www.w3.org/1999/xlink">
	<desc>
			Created with Pixso.
	</desc>
	<defs>
		<clipPath id="clip1_52">
			<rect rx="-0.500000" width="59.000000" height="59.000000" transform="translate(0.500000 0.500000)" fill="white" fill-opacity="0"/>
		</clipPath>
	</defs>
	<rect rx="-0.500000" width="59.000000" height="59.000000" transform="translate(0.500000 0.500000)" fill="#FFFFFF" fill-opacity="0"/>
	<g clip-path="url(#clip1_52)">
		<path d="M10.01 0L10.01 60L49.98 60L49.98 0L10.01 0ZM38.47 3.51L37.88 7.03L22.11 7.03L21.52 3.51L38.47 3.51ZM46.46 56.48L13.53 56.48L13.53 3.51L17.96 3.51L19.13 10.54L40.86 10.54L42.03 3.51L46.46 3.51L46.46 56.48Z" fill="#F79C1B" fill-opacity="1.000000" fill-rule="nonzero"/>
		<path d="M23.2 49.45L36.79 49.45L36.79 52.96L23.2 52.96L23.2 49.45Z" fill="#F79C1B" fill-opacity="1.000000" fill-rule="nonzero"/>
		<path d="M30 35.92C28.51 35.92 27.3 34.97 27.3 33.79L23.79 33.79C23.79 36.35 25.67 38.52 28.24 39.21L28.24 41.17L31.75 41.17L31.75 39.21C34.32 38.52 36.2 36.35 36.2 33.79C36.2 30.67 33.42 28.14 30 28.14C28.51 28.14 27.3 27.18 27.3 26C27.3 24.83 28.51 23.87 30 23.87C31.48 23.87 32.69 24.83 32.69 26L36.2 26C36.2 23.44 34.32 21.28 31.75 20.58L31.75 18.63L28.24 18.63L28.24 20.58C25.67 21.28 23.79 23.44 23.79 26C23.79 29.12 26.57 31.66 30 31.66C31.48 31.66 32.69 32.61 32.69 33.79C32.69 34.97 31.48 35.92 30 35.92Z" fill="#F79C1B" fill-opacity="1.000000" fill-rule="nonzero"/>
	</g>
</svg>
